<?xml version="1.0" standalone="no"?>
<!DOCTYPE svg PUBLIC "-//W3C//DTD SVG 20010904//EN"
 "http://www.w3.org/TR/2001/REC-SVG-20010904/DTD/svg10.dtd">
<svg version="1.0" xmlns="http://www.w3.org/2000/svg"
 width="380.000000pt" height="380.000000pt" viewBox="0 0 380.000000 380.000000"
 preserveAspectRatio="xMidYMid meet">
<metadata>
Created by potrace 1.14, written by Peter Selinger 2001-2017
</metadata>
<g transform="translate(0.000000,380.000000) scale(0.100000,-0.100000)"
fill="#000000" stroke="none">
<path d="M0 1900 l0 -1900 445 0 445 0 0 236 c0 130 -5 324 -11 432 -9 172
-14 209 -40 289 -46 146 -58 251 -53 468 6 274 46 462 142 668 l45 98 -22 37
c-160 266 -158 603 7 1002 74 180 83 195 121 198 31 3 41 -3 95 -61 75 -79
136 -184 182 -312 33 -94 76 -283 89 -397 3 -32 9 -58 12 -58 3 0 45 18 94 40
213 96 424 136 674 127 226 -8 419 -53 638 -148 59 -26 89 -34 92 -26 2 7 11
46 21 87 58 254 203 533 305 585 41 22 61 9 120 -83 221 -337 231 -683 29
-977 l-28 -41 48 -98 c88 -180 109 -330 89 -641 -11 -165 -35 -283 -90 -435
-11 -30 -22 -64 -25 -75 -16 -65 -134 -859 -134 -899 0 -14 30 -16 255 -16
l255 0 0 1900 0 1900 -1900 0 -1900 0 0 -1900z"/>
<path d="M2984 2069 c-18 -5 -54 -24 -80 -41 -119 -80 -129 -231 -22 -322 77
-67 215 -76 304 -20 57 34 109 107 119 163 15 90 -51 192 -142 219 -46 14
-133 14 -179 1z"/>
<path d="M1240 1806 c-169 -45 -239 -205 -145 -331 12 -17 47 -44 76 -60 106
-58 259 -32 334 57 40 47 55 89 55 150 -1 147 -147 231 -320 184z"/>
<path d="M2285 1770 c-158 -12 -331 -57 -370 -96 -47 -48 -25 -103 83 -205 87
-83 217 -154 266 -144 71 13 198 143 256 263 44 88 48 122 19 154 -20 22 -35
27 -89 31 -36 2 -110 1 -165 -3z"/>
</g>
</svg>
